<?xml version="1.0" standalone="no"?>
<!DOCTYPE svg PUBLIC "-//W3C//DTD SVG 20010904//EN"
 "http://www.w3.org/TR/2001/REC-SVG-20010904/DTD/svg10.dtd">
<svg version="1.0" xmlns="http://www.w3.org/2000/svg"
 width="283.000000pt" height="150.000000pt" viewBox="0 0 283.000000 150.000000"
 preserveAspectRatio="xMidYMid meet">

<g transform="translate(0.000000,150.000000) scale(0.100000,-0.100000)"
fill="#000000" stroke="none">
<path d="M386 1243 c-3 -10 -10 -47 -16 -83 -6 -36 -14 -75 -17 -87 l-5 -23
253 0 c262 0 311 -6 362 -42 45 -32 61 -74 60 -158 -1 -140 -51 -282 -120
-339 -68 -56 -110 -64 -398 -70 l-260 -6 -17 -85 c-9 -47 -15 -91 -13 -98 4
-11 61 -13 308 -10 272 4 308 6 364 25 88 29 140 62 206 132 109 114 169 285
171 486 1 106 -2 126 -23 173 -30 67 -104 134 -177 162 -77 29 -203 40 -456
40 -198 0 -217 -2 -222 -17z"/>
<path d="M1324 1158 c3 -24 22 -169 42 -323 20 -154 46 -352 58 -440 l21 -160
95 -2 95 -3 190 350 c162 299 205 372 205 346 0 -3 14 -105 30 -228 52 -380
60 -441 60 -455 0 -10 24 -13 98 -13 l97 0 47 93 c26 50 76 146 111 212 35 66
127 240 205 388 78 147 142 269 142 272 0 3 -37 5 -83 5 l-83 0 -79 -147 c-43
-82 -90 -170 -105 -198 -15 -27 -69 -128 -119 -223 -51 -94 -96 -170 -100
-167 -5 2 -11 30 -14 62 -8 83 -76 613 -83 646 -6 27 -7 27 -83 27 l-78 0
-198 -365 c-108 -201 -200 -365 -204 -365 -4 0 -15 62 -25 138 -32 253 -66
517 -72 555 l-6 37 -85 0 -85 0 6 -42z"/>
<path d="M125 836 c-45 -20 -66 -49 -86 -121 l-18 -66 264 3 264 3 31 30 c28
27 41 56 56 133 l7 32 -244 0 c-180 -1 -252 -4 -274 -14z"/>
</g>
</svg>
